<?xml version="1.0" standalone="no"?>
<!DOCTYPE svg PUBLIC "-//W3C//DTD SVG 20010904//EN"
 "http://www.w3.org/TR/2001/REC-SVG-20010904/DTD/svg10.dtd">
<svg version="1.0" xmlns="http://www.w3.org/2000/svg"
 width="300.000000pt" height="300.000000pt" viewBox="0 0 200.000000 200.000000"
 preserveAspectRatio="xMidYMid meet">

<g transform="translate(0.000000,200.000000) scale(0.100000,-0.100000)"
fill="#fff" stroke="none">
<path d="M801 1482 c-66 -33 -76 -59 -76 -191 0 -174 16 -191 223 -235 183
-39 173 -33 170 -113 l-3 -68 -100 -3 c-141 -4 -145 -3 -145 58 l0 50 -75 0
-75 0 0 -71 c0 -92 19 -132 74 -159 37 -18 62 -20 206 -20 144 0 169 2 206 20
64 32 76 66 72 205 -5 168 -21 185 -238 231 -69 14 -133 31 -143 36 -15 8 -17
20 -15 71 l3 62 110 0 110 0 3 -47 3 -48 81 0 81 0 -6 77 c-11 142 -45 163
-272 163 -133 0 -166 -3 -194 -18z"/>
<path d="M720 530 l0 -70 280 0 280 0 0 70 0 70 -280 0 -280 0 0 -70z"/>
</g>
</svg>
